<?xml version="1.0" encoding="UTF-8" standalone="no"?>
<!-- Generator: Adobe Illustrator 25.4.1, SVG Export Plug-In . SVG Version: 6.00 Build 0)  -->

<svg
   version="1.1"
   x="0px"
   y="0px"
   viewBox="0 0 1861.1724 552.33429"
   xml:space="preserve"
   id="svg65"
   sodipodi:docname="fr-ingerop-logo.svg"
   width="1861.1724"
   height="552.33429"
   inkscape:version="1.1.2 (b8e25be833, 2022-02-05)"
   xmlns:inkscape="http://www.inkscape.org/namespaces/inkscape"
   xmlns:sodipodi="http://sodipodi.sourceforge.net/DTD/sodipodi-0.dtd"
   xmlns="http://www.w3.org/2000/svg"
   xmlns:svg="http://www.w3.org/2000/svg"><defs
   id="defs69" /><sodipodi:namedview
   id="namedview67"
   pagecolor="#ffffff"
   bordercolor="#666666"
   borderopacity="1.0"
   inkscape:pageshadow="2"
   inkscape:pageopacity="0.0"
   inkscape:pagecheckerboard="0"
   showgrid="false"
   lock-margins="true"
   fit-margin-top="10"
   fit-margin-left="10"
   fit-margin-right="10"
   fit-margin-bottom="10"
   inkscape:zoom="0.55104167"
   inkscape:cx="407.41021"
   inkscape:cy="277.65595"
   inkscape:window-width="1920"
   inkscape:window-height="1027"
   inkscape:window-x="-3848"
   inkscape:window-y="-8"
   inkscape:window-maximized="1"
   inkscape:current-layer="svg65" />
<style
   type="text/css"
   id="style2">
	.st0{fill:#004D9B;}
	.st1{fill:#E20026;}
	.st2{fill:#1D1D1B;stroke:#1D1D1B;stroke-width:0.6086;stroke-miterlimit:10;}
	.st3{fill:#1D1D1B;stroke:#1D1D1B;}
</style>
<g
   id="Calque_1"
   transform="translate(-30.617673,-264.02)">
	<g
   id="g20">
		<polygon
   class="st0"
   points="1182.89,364.93 1243.24,308.2 1174.96,308.2 1133.92,364.93 "
   id="polygon4" />
		<path
   class="st0"
   d="M 519.67,632.74 V 403.83 h 45.92 v 228.91 z"
   id="path6" />
		<path
   class="st0"
   d="M 792.77,637.23 650.87,484.97 V 632.74 H 607.02 V 401.76 h 20.37 l 141.9,148.12 V 403.83 h 43.85 v 233.4 z"
   id="path8" />
		<path
   class="st0"
   d="m 961.26,637.23 c -68.36,0 -119.81,-49.72 -119.81,-119.46 0,-67.67 52.13,-118.43 124.64,-118.43 29,0 54.9,7.25 77.68,21.06 l -21.41,38.33 c -18.64,-12.08 -35.56,-17.95 -56.97,-17.95 -48.34,0 -76.65,35.22 -76.65,77.34 0,46.26 29,77.68 74.23,77.68 14.84,0 31.07,-3.11 44.19,-8.97 V 548.5 h -64.22 l 23.48,-40.4 h 86.66 v 105.65 c -30.01,16.23 -59.36,23.48 -91.82,23.48 z"
   id="path10" />
		<path
   class="st0"
   d="M 1091.77,632.74 V 403.83 h 152.26 l -23.48,40.05 h -82.86 v 52.14 h 75.27 v 40.05 h -75.27 v 56.62 h 85.97 l 23.13,40.05 z"
   id="path12" />
		<path
   class="st0"
   d="m 1394.57,632.74 -54.21,-82.86 h -26.58 v 82.86 h -45.92 V 403.83 h 68.7 c 61.11,0 90.46,27.97 90.46,71.81 0,33.84 -20.37,57.66 -42.81,65.26 l 62.15,91.84 z m -62.15,-189.55 h -18.64 v 68.02 h 13.12 c 35.56,0 53.52,-8.63 53.52,-33.83 -0.01,-22.1 -11.4,-34.19 -48,-34.19 z"
   id="path14" />
		<path
   class="st0"
   d="m 1570.7,637.23 c -67.67,0 -120.84,-51.44 -120.84,-119.11 0,-66.98 53.17,-118.77 120.84,-118.77 67.68,0 120.84,51.44 120.84,118.77 0.01,67.67 -52.82,119.11 -120.84,119.11 z m 0,-196.46 c -44.88,0 -73.54,34.53 -73.54,77.34 0,43.16 28.66,77.68 73.54,77.68 44.89,0 73.54,-34.53 73.54,-77.68 0.01,-42.81 -28.65,-77.34 -73.54,-77.34 z"
   id="path16" />
		<path
   class="st0"
   d="m 1784.08,550.57 h -18.3 v 82.17 h -45.92 V 403.83 h 70.44 c 57.66,0 91.49,23.83 91.49,73.2 0,56.62 -47.99,73.54 -97.71,73.54 z m -1.38,-106.69 h -16.92 v 67.33 h 14.15 c 31.42,0 54.55,-5.52 54.55,-33.83 0.01,-26.94 -18.29,-33.5 -51.78,-33.5 z"
   id="path18" />
	</g>
</g>
<g
   id="croix"
   transform="translate(-30.617673,-264.02)">
	<g
   id="g27">
		<path
   class="st0"
   d="M 711.01,784.42 C 14.98,502.6 211.63,274.02 211.63,274.02 c 0,0 -335.83,268.08 499.38,510.4 z"
   id="path23" />
		<path
   class="st1"
   d="M 670.41,310.15 C -66.36,455.13 83.47,716.78 83.47,716.78 c 0,0 -279.03,-326.81 586.94,-406.63 z"
   id="path25" />
	</g>
</g>
<g
   id="base_line"
   transform="translate(-30.617673,-264.02)">
	<g
   id="g62">
		<g
   id="g58">
			<path
   class="st2"
   d="m 848.07,792.22 c -0.85,2.61 -4.42,3.91 -10.68,3.91 -3.39,0 -5.96,-1.61 -7.69,-4.84 -0.8,-1.63 -1.63,-3.22 -2.4,-4.85 -0.56,-0.88 -1.72,-3.28 -3.52,-7.27 -1.01,-2.22 -2.03,-3.35 -3.07,-3.35 -1.54,0 -4.31,1.25 -8.3,3.72 -1.82,1.13 -4.05,2.62 -6.69,4.48 -3.64,2.61 -7.2,5.23 -10.74,7.84 -4.99,3.34 -9.18,5.02 -12.58,5.02 -5.04,0 -7.95,-4.47 -8.74,-13.42 -0.68,-7.94 0.18,-15.71 2.66,-23.27 0.3,-0.88 0.96,-1.83 2.02,-2.9 1.09,-1.04 2.08,-1.63 3.05,-1.78 0.86,-0.1 1.49,0.24 1.9,1.04 0.41,0.81 0.18,2.98 -0.67,6.53 -0.85,3.53 -1.17,8.15 -0.98,13.88 0.18,7.32 1.66,10.99 4.45,10.99 1.43,0 3.35,-0.69 5.75,-2.05 0.13,-0.14 3.94,-2.8 11.41,-8.01 6.52,-4.61 10.5,-7.34 11.92,-8.2 4.29,-2.72 7.36,-4.11 9.21,-4.11 1.95,0 3.95,2.56 5.99,7.65 1.28,3.35 2.5,5.89 3.68,7.63 1.31,2.61 2.29,4.48 2.96,5.59 1.26,2.11 2.46,3.18 3.59,3.18 h 2.79 c 1.73,0 3.05,0.14 3.92,0.45 0.84,0.31 1.11,1.03 0.76,2.14 z"
   id="path30" />
			<path
   class="st2"
   d="m 894.94,777.7 c -2.16,6.58 -5.58,12.69 -10.29,18.34 -4.73,5.66 -9.15,8.49 -13.25,8.49 -2.05,0 -4.03,-2.13 -5.95,-6.34 -1.92,-4.21 -3.25,-9.56 -4.03,-16.02 -0.5,-4.47 -0.74,-8.31 -0.7,-11.55 0.07,-4.34 0.7,-8.33 1.87,-11.92 0.85,-2.61 1.71,-4.5 2.55,-5.69 0.86,-1.17 2.06,-1.76 3.59,-1.76 1.55,0 2.51,0.46 2.86,1.39 0.37,0.94 0.13,2.71 -0.72,5.31 -0.76,2 -1.33,4.78 -1.72,8.37 -0.42,3.62 -0.48,6.91 -0.24,9.89 0.44,4.96 1.29,9.49 2.59,13.59 1.27,4.08 2.6,6.14 3.94,6.14 1.33,0 3.53,-2.42 6.59,-7.26 3.07,-4.85 5.34,-9.51 6.81,-13.98 0.78,-2.36 1.2,-4.96 1.31,-7.82 0.24,-7.07 0.52,-11.04 0.81,-11.92 0.33,-1.37 1,-2.55 1.99,-3.54 0.98,-0.99 2.46,-1.31 4.38,-0.93 1.64,0.37 1.92,4.36 0.89,11.93 -0.86,6.08 -1.95,11.16 -3.28,15.28 z"
   id="path32" />
			<path
   class="st2"
   d="m 980.24,788.12 -22.13,6.33 c -5.32,1.49 -8.85,2.36 -10.57,2.61 -4.14,0.75 -9.47,1.12 -15.93,1.12 -5.34,0 -9.47,-1.12 -12.31,-3.35 -1.5,-1.13 -3.25,-3.48 -5.26,-7.08 -1.76,1 -3.39,1.89 -4.88,2.7 -1.5,0.81 -3.07,1.51 -4.71,2.14 -1.07,0.49 -1.79,0.22 -2.13,-0.84 -0.31,-1.05 -0.26,-2.25 0.21,-3.63 0.35,-1.1 0.8,-1.73 1.36,-1.87 1.3,-0.49 2.6,-1.05 3.94,-1.67 4.04,-1.99 6.19,-3.04 6.43,-3.17 -0.16,-1.98 0,-4.22 0.49,-6.7 0.5,-2.48 1.22,-5.1 2.11,-7.82 2.1,-6.46 5.69,-11.89 10.77,-16.31 5.08,-4.39 9.63,-6.59 13.64,-6.59 3.29,0 5.75,1.3 7.35,3.91 1.89,3.09 1.94,7.33 0.21,12.67 -1.37,4.21 -5.6,9 -12.7,14.35 -3,2.24 -7.62,5.38 -13.9,9.48 1.33,2.23 2.81,3.85 4.44,4.86 2.29,1.49 5.08,2.23 8.37,2.23 6.47,0 10.9,-0.17 13.25,-0.47 2.37,-0.32 6.4,-1.38 12.06,-3.17 5.69,-1.81 9.55,-3.01 11.6,-3.63 3.2,-0.99 5.79,-1.67 7.77,-2.05 1.76,-0.38 3.01,-0.25 3.73,0.38 0.73,0.62 0.91,1.43 0.6,2.41 -0.46,1.36 -1.74,2.42 -3.81,3.16 z m -37.96,-28.3 c 0.59,-2.48 0.63,-4.48 0.09,-5.97 -0.55,-1.49 -1.89,-2.24 -4.07,-2.24 -2.75,0 -5.6,1.43 -8.48,4.3 -2.86,2.84 -4.91,6.13 -6.14,9.86 -0.72,2.23 -1.4,4.39 -2.01,6.43 -0.63,2.04 -0.8,4.01 -0.46,5.87 5.7,-3.24 10.39,-6.43 14.16,-9.59 3.76,-3.18 6.06,-6.06 6.91,-8.66 z"
   id="path34" />
			<path
   class="st2"
   d="m 1055.06,792.22 c -0.85,2.61 -4.4,3.91 -10.68,3.91 -3.38,0 -5.95,-1.61 -7.67,-4.84 -0.81,-1.63 -1.63,-3.22 -2.43,-4.85 -0.55,-0.88 -1.7,-3.28 -3.49,-7.27 -1.01,-2.22 -2.05,-3.35 -3.07,-3.35 -1.55,0 -4.31,1.25 -8.32,3.72 -1.8,1.13 -4.05,2.62 -6.7,4.48 -3.62,2.61 -7.21,5.23 -10.72,7.84 -5.01,3.34 -9.2,5.02 -12.6,5.02 -5.03,0 -7.95,-4.47 -8.72,-13.42 -0.7,-7.94 0.18,-15.71 2.64,-23.27 0.29,-0.88 0.96,-1.83 2.03,-2.9 1.05,-1.04 2.07,-1.63 3.03,-1.78 0.89,-0.1 1.5,0.24 1.92,1.04 0.4,0.81 0.19,2.98 -0.66,6.53 -0.85,3.53 -1.19,8.15 -0.98,13.88 0.18,7.32 1.64,10.99 4.44,10.99 1.44,0 3.35,-0.69 5.74,-2.05 0.15,-0.14 3.96,-2.8 11.41,-8.01 6.54,-4.61 10.51,-7.34 11.92,-8.2 4.29,-2.72 7.36,-4.11 9.22,-4.11 1.94,0 3.94,2.56 5.99,7.65 1.26,3.35 2.47,5.89 3.66,7.63 1.32,2.61 2.3,4.48 2.98,5.59 1.26,2.11 2.46,3.18 3.59,3.18 h 2.77 c 1.73,0 3.05,0.14 3.94,0.45 0.87,0.31 1.13,1.03 0.76,2.14 z"
   id="path36" />
			<path
   class="st2"
   d="m 1114.4,752.73 c -0.57,1.75 -1.33,2.73 -2.27,2.98 -0.96,0.26 -2.11,0.38 -3.44,0.38 -1.13,0 -2.89,-0.24 -5.3,-0.75 -6.08,-1.24 -9.46,-1.88 -10.18,-1.88 -0.61,0 -2.91,0.58 -6.87,1.69 -2.16,0.63 -3.77,0.94 -4.78,0.94 -0.93,5.7 -1.6,12.14 -1.97,19.28 -0.39,7.14 -0.16,11.52 0.65,13.12 0.37,0.77 1.37,1.63 3.01,2.62 1.63,0.99 2.27,1.98 1.96,2.97 -0.59,1.75 -1.46,2.93 -2.63,3.54 -1.18,0.63 -3.05,0.93 -5.61,0.93 -3.81,0 -5.4,-7.14 -4.75,-21.4 0.24,-6.09 0.79,-11.87 1.65,-17.33 -1.7,0.49 -4.92,2.3 -9.61,5.39 -2.11,1.37 -3.4,2.04 -3.92,2.04 -1.85,0 -2.46,-0.98 -1.81,-2.97 0.85,-2.6 3.1,-5.28 6.78,-8.01 3.05,-2.12 6.17,-4.3 9.37,-6.52 0.92,-5.35 2.26,-11.75 4.02,-19.2 1.77,-7.45 3.82,-14.77 6.17,-21.96 0.72,-2.24 1.44,-4.52 2.15,-6.81 0.71,-2.29 1.43,-4.63 2.19,-6.97 1.3,-3.98 2.48,-6.99 3.49,-9.05 1.03,-2.05 2.11,-3.07 3.24,-3.07 1.86,0 2.19,2.61 0.99,7.83 -1.18,5.21 -3.31,12.54 -6.37,21.98 -1.02,3.11 -2.24,7.89 -3.62,14.34 -1.39,6.46 -2.72,13.22 -4,20.3 1.24,0 3.22,-0.31 6,-0.93 2.77,-0.61 4.77,-0.92 6,-0.92 5.57,0 10.33,0.8 14.33,2.43 3.99,1.58 5.71,3.26 5.13,5.01 z"
   id="path38" />
			<path
   class="st2"
   d="m 1175.75,776.95 c -1.86,5.71 -5.69,10.3 -11.52,13.79 -5.8,3.46 -12.05,5.19 -18.72,5.19 -9.14,0 -16.54,-2.79 -22.17,-8.38 -5.64,-5.6 -7.12,-12.47 -4.44,-20.68 1.13,-3.48 3.71,-6.83 7.74,-10.06 4.05,-3.23 7.16,-4.85 9.3,-4.85 1.16,-0.11 2.17,-0.18 2.99,-0.18 1.63,0 2.91,0.26 3.76,0.74 0.86,0.5 1.09,1.45 0.65,2.8 -0.54,1.62 -1.57,2.64 -3.11,3.08 -1.51,0.43 -3.16,0.65 -4.89,0.65 -1.65,0 -3.46,0.8 -5.42,2.42 -1.97,1.61 -3.23,3.29 -3.79,5.03 -1.35,4.1 -0.28,8.51 3.23,13.22 4.15,5.6 10.37,8.39 18.71,8.39 5.03,0 9.44,-1.07 13.23,-3.26 3.79,-2.15 6.21,-4.81 7.21,-7.91 0.67,-1.75 -0.24,-3.97 -2.75,-6.71 -2.03,-2.25 -4.92,-4.6 -8.63,-7.07 -2.89,-1.24 -4.94,-2.05 -6.16,-2.42 -2.08,-0.88 -2.83,-2.18 -2.27,-3.92 0.42,-1.61 1.05,-2.64 1.86,-3.09 0.8,-0.42 2.24,-0.64 4.29,-0.64 1.02,0 3.05,0.85 6.04,2.51 3,1.68 5.64,3.59 7.93,5.7 3.29,2.85 5.42,5.16 6.4,6.89 1.42,2.61 1.59,5.53 0.53,8.76 z"
   id="path40" />
			<path
   class="st2"
   d="m 1267.32,792.22 c -0.85,2.61 -4.42,3.91 -10.68,3.91 -3.38,0 -5.95,-1.61 -7.69,-4.84 -0.79,-1.63 -1.63,-3.22 -2.41,-4.85 -0.56,-0.88 -1.72,-3.28 -3.51,-7.27 -1.02,-2.22 -2.03,-3.35 -3.07,-3.35 -1.54,0 -4.3,1.25 -8.29,3.72 -1.82,1.13 -4.06,2.62 -6.7,4.48 -3.64,2.61 -7.2,5.23 -10.74,7.84 -5,3.34 -9.2,5.02 -12.61,5.02 -5.04,0 -7.94,-4.47 -8.73,-13.42 -0.69,-7.94 0.18,-15.71 2.66,-23.27 0.3,-0.88 0.96,-1.83 2.01,-2.9 1.1,-1.04 2.09,-1.63 3.05,-1.78 0.86,-0.1 1.5,0.24 1.91,1.04 0.4,0.81 0.18,2.98 -0.67,6.53 -0.85,3.53 -1.17,8.15 -0.98,13.88 0.19,7.32 1.66,10.99 4.46,10.99 1.42,0 3.34,-0.69 5.75,-2.05 0.14,-0.14 3.95,-2.8 11.41,-8.01 6.53,-4.61 10.5,-7.34 11.92,-8.2 4.28,-2.72 7.35,-4.11 9.21,-4.11 1.95,0 3.95,2.56 5.98,7.65 1.27,3.35 2.49,5.89 3.67,7.63 1.32,2.61 2.29,4.48 2.96,5.59 1.25,2.11 2.46,3.18 3.59,3.18 h 2.79 c 1.74,0 3.05,0.14 3.92,0.45 0.88,0.31 1.14,1.03 0.79,2.14 z"
   id="path42" />
			<path
   class="st2"
   d="m 1331.17,791.71 c -1.42,4.35 -5.06,7.83 -10.88,10.44 -5.84,2.6 -11.88,3.9 -18.15,3.9 -8.85,0 -15.93,-1.68 -21.28,-5.03 -5.32,-3.34 -7.04,-7.95 -5.14,-13.77 0.72,-2.25 1.63,-4.14 2.7,-5.69 1.07,-1.55 2.4,-2.39 3.97,-2.51 1.76,0 2.28,1.1 1.54,3.34 -0.67,1.74 -1.13,2.99 -1.37,3.73 -1.06,3.24 0.85,6.02 5.75,8.39 4.87,2.36 9.85,3.54 14.9,3.54 4.51,0 8.39,-0.45 11.66,-1.3 4.53,-1.26 7.17,-3.05 7.95,-5.41 0.96,-2.97 -1.35,-6.78 -6.95,-11.36 -3.2,-2.48 -6.32,-5.03 -9.39,-7.64 -4.02,-3.72 -7.09,-8 -9.22,-12.85 -2.6,-6.21 -2.92,-12.29 -0.98,-18.26 0.89,-2.72 2.95,-4.99 6.21,-6.79 3.27,-1.8 7.38,-2.7 12.31,-2.7 2.15,0 4.29,0.76 6.42,2.34 2.1,1.53 2.79,3.49 2.02,5.86 -0.89,2.73 -1.52,4.23 -1.85,4.47 -0.33,0.24 -1.19,0.37 -2.52,0.37 -1.13,0 -2.03,-0.81 -2.75,-2.43 -0.7,-1.6 -2.12,-2.42 -4.31,-2.42 -2.75,0 -5.16,0.86 -7.17,2.6 -0.55,0.5 -1.31,1.36 -2.22,2.61 -0.46,1.98 0.41,5.26 2.59,9.78 2.16,4.53 5.03,8.46 8.56,11.82 7.87,7.32 12.3,11.49 13.19,12.48 4.12,4.73 5.59,8.88 4.41,12.49 z"
   id="path44" />
			<path
   class="st2"
   d="m 1472.29,798.18 c -0.48,1.5 -1.65,2.24 -3.49,2.24 -2.16,0 -3.96,-1.06 -5.38,-3.17 -1.42,-2.11 -2.48,-4.91 -3.2,-8.37 -0.84,-4.37 -1.22,-9.71 -1.09,-16.03 0.09,-3.74 0.14,-6.14 0.2,-7.28 -5.14,8.2 -10.4,14.85 -15.76,19.94 -8.83,8.45 -17.56,12.67 -26.18,12.67 -6.27,0 -10.39,-1.76 -12.39,-5.3 -1.96,-3.53 -2.09,-7.98 -0.36,-13.33 2.13,-6.45 6.05,-12.34 11.8,-17.69 5.75,-5.32 11.29,-8.01 16.63,-8.01 4.85,0 8.69,1.37 11.54,4.1 2.87,2.74 3.9,5.34 3.09,7.82 -0.72,2.23 -1.7,3.34 -2.94,3.34 -2.31,-1.73 -4.63,-3.34 -6.92,-4.82 -2.27,-1.5 -4.46,-2.25 -6.52,-2.25 -4.1,0 -8.29,2.25 -12.51,6.71 -3.57,3.74 -5.92,7.33 -7.07,10.79 -0.77,2.37 -0.33,4.7 1.35,7 1.65,2.29 4.17,3.45 7.58,3.45 6.69,0 13.77,-3.8 21.29,-11.37 5.23,-5.34 11.57,-13.72 19,-25.16 2.01,-6.19 3.6,-12.72 4.75,-19.54 1.15,-6.84 2.3,-13.72 3.42,-20.68 0.85,-2.6 1.67,-4.45 2.42,-5.5 0.76,-1.04 1.85,-1.56 3.29,-1.56 2.37,0 2.54,5.15 0.51,15.46 -1.08,5.21 -2.09,10.36 -3.03,15.45 -0.14,1 -0.8,4.42 -2.04,10.25 -1.24,5.84 -2.04,10.77 -2.44,14.81 -0.38,4.03 -0.61,8.66 -0.68,13.87 0,6.33 0.34,10.61 1.08,12.86 0.52,1.48 1.49,3.4 2.89,5.76 1.03,1.61 1.4,2.79 1.16,3.54 z"
   id="path46" />
			<path
   class="st2"
   d="m 1558.11,788.12 -22.11,6.33 c -5.32,1.49 -8.85,2.36 -10.6,2.61 -4.13,0.75 -9.46,1.12 -15.92,1.12 -5.34,0 -9.47,-1.12 -12.31,-3.35 -1.5,-1.13 -3.25,-3.48 -5.26,-7.08 -1.78,1 -3.4,1.89 -4.89,2.7 -1.5,0.81 -3.07,1.51 -4.72,2.14 -1.08,0.49 -1.79,0.22 -2.11,-0.84 -0.33,-1.05 -0.26,-2.25 0.18,-3.63 0.37,-1.1 0.81,-1.73 1.37,-1.87 1.29,-0.49 2.61,-1.05 3.96,-1.67 4.02,-1.99 6.17,-3.04 6.41,-3.17 -0.16,-1.98 0,-4.22 0.51,-6.7 0.5,-2.48 1.2,-5.1 2.09,-7.82 2.11,-6.46 5.71,-11.89 10.78,-16.31 5.1,-4.39 9.63,-6.59 13.66,-6.59 3.26,0 5.73,1.3 7.36,3.91 1.85,3.09 1.93,7.33 0.18,12.67 -1.36,4.21 -5.6,9 -12.7,14.35 -3,2.24 -7.62,5.38 -13.88,9.48 1.33,2.23 2.79,3.85 4.44,4.86 2.27,1.49 5.07,2.23 8.35,2.23 6.48,0 10.92,-0.17 13.28,-0.47 2.36,-0.32 6.38,-1.38 12.05,-3.17 5.67,-1.81 9.53,-3.01 11.59,-3.63 3.22,-0.99 5.81,-1.67 7.77,-2.05 1.77,-0.38 3.01,-0.25 3.73,0.38 0.74,0.62 0.92,1.43 0.59,2.41 -0.45,1.36 -1.71,2.42 -3.8,3.16 z m -37.97,-28.3 c 0.61,-2.48 0.65,-4.48 0.11,-5.97 -0.56,-1.49 -1.9,-2.24 -4.06,-2.24 -2.77,0 -5.6,1.43 -8.51,4.3 -2.86,2.84 -4.91,6.13 -6.13,9.86 -0.72,2.23 -1.41,4.39 -2.02,6.43 -0.62,2.04 -0.77,4.01 -0.46,5.87 5.69,-3.24 10.41,-6.43 14.16,-9.59 3.77,-3.18 6.06,-6.06 6.91,-8.66 z"
   id="path48" />
			<path
   class="st2"
   d="m 1683.78,789.99 c -0.05,0.49 -0.26,1.3 -0.63,2.42 -0.68,2.11 -1.98,3.04 -3.84,2.79 -0.78,-0.11 -1.46,-1.19 -2.06,-3.18 -0.59,-1.98 -1.14,-4.03 -1.7,-6.13 -0.72,-1.87 -1.69,-3.39 -2.82,-4.58 -1.16,-1.17 -2.4,-1.77 -3.75,-1.77 -1.64,0 -3.65,0.82 -6.03,2.43 -0.67,0.5 -3.14,2.43 -7.41,5.78 -3.61,2.84 -6.14,4.78 -7.6,5.77 -2.98,1.87 -5.61,2.8 -7.86,2.8 -2.57,0 -4.87,-3.17 -6.93,-9.51 -0.5,-1.61 -1.56,-5.14 -3.16,-10.6 -1.24,-4.11 -2.48,-7.21 -3.76,-9.32 -1.58,-2.74 -3.45,-4.1 -5.59,-4.1 -2.57,0 -5.95,1.56 -10.15,4.65 -3.14,2.37 -6.98,5.78 -11.52,10.26 -6.61,6.7 -10.87,10.79 -12.81,12.3 -4.6,3.71 -8.85,5.58 -12.77,5.58 -4.31,0 -6.63,-4.65 -7.01,-13.98 -0.31,-8.19 0.81,-16.21 3.36,-24.02 l 1.04,-3.16 c 0.75,-2.35 1.61,-4.21 2.51,-5.59 0.9,-1.36 2.12,-2.05 3.67,-2.05 1.33,0 1.94,1.21 1.83,3.63 -0.13,2.42 -0.7,5.19 -1.69,8.29 -1.95,5.95 -2.96,11.85 -3.01,17.68 -0.04,5.85 1.07,8.77 3.32,8.77 2.89,0 6.12,-1.61 9.76,-4.85 0.7,-0.62 4.05,-4.08 10.03,-10.42 4.71,-4.97 8.85,-8.57 12.47,-10.81 5.07,-3.21 10.21,-4.85 15.46,-4.85 3.08,0 5.73,1.63 7.98,4.85 1.58,2.36 3.2,5.95 4.8,10.81 1.14,3.71 2.33,7.32 3.57,10.8 1.22,3.47 2.51,5.22 3.85,5.22 1.13,0 2.95,-0.86 5.46,-2.61 3.39,-2.48 5.96,-4.35 7.69,-5.58 2.66,-1.88 4.89,-3.3 6.64,-4.29 2.51,-1.37 4.79,-2.06 6.84,-2.06 3.71,0 6.84,2.37 9.43,7.08 2.39,4.36 3.16,8.19 2.39,11.55 z"
   id="path50" />
			<path
   class="st2"
   d="m 1747.57,800.22 c -0.35,1.13 -1.23,1.93 -2.55,2.43 -1.36,0.48 -3.11,0.75 -5.28,0.75 -2.66,0 -4.51,-2.23 -5.53,-6.71 -0.46,-2.36 -0.91,-4.72 -1.39,-7.06 -0.42,-1.25 -0.75,-2.56 -1.04,-3.92 -0.77,-2.35 -1.81,-3.54 -3.15,-3.54 -0.72,0 -2.21,0.74 -4.44,2.23 -2.23,1.5 -4.34,2.92 -6.35,4.29 -1.88,1.12 -3.23,1.91 -4.01,2.42 -3.14,1.74 -5.9,2.59 -8.26,2.59 -5.95,0 -9.87,-2.16 -11.76,-6.5 -1.27,-2.98 -1.48,-5.85 -0.59,-8.58 2.41,-7.45 7.43,-13.61 14.95,-18.43 6.4,-4.1 11.89,-6.15 16.51,-6.15 2.68,0 4.9,0.93 6.66,2.79 1.73,1.86 2.34,3.68 1.76,5.41 -0.57,1.73 -1.09,2.72 -1.58,2.97 -0.51,0.24 -1.35,0.36 -2.58,0.36 -0.82,0 -1.65,-0.61 -2.48,-1.85 -0.84,-1.24 -2.13,-1.86 -3.87,-1.86 -4,0 -8.25,1.58 -12.73,4.75 -4.47,3.15 -7.36,6.74 -8.65,10.71 -0.72,2.22 -0.81,4.17 -0.19,5.77 0.98,2.36 3.05,3.54 6.25,3.54 1.42,0 3.22,-0.55 5.32,-1.67 1.09,-0.5 2.87,-1.54 5.34,-3.18 3.05,-2.11 5.24,-3.53 6.51,-4.26 2.31,-1.5 4.21,-2.24 5.66,-2.24 1.85,0 3.44,0.4 4.77,1.2 1.33,0.81 2.53,2.58 3.58,5.3 0.83,1.87 1.46,5.17 1.87,9.89 0.37,3.61 1.08,5.39 2.08,5.39 4.15,0 5.85,1.06 5.17,3.16 z"
   id="path52" />
			<path
   class="st2"
   d="m 1769.75,789.62 c -0.65,1.98 -1.34,3.27 -2.06,3.9 -0.71,0.62 -1.68,0.93 -2.92,0.93 -2.25,0 -3.44,-2.85 -3.53,-8.56 -0.1,-5.72 0.63,-10.93 2.16,-15.65 0.44,-1.37 1.01,-3.05 1.72,-5.03 0.7,-1.99 1.68,-3.17 2.93,-3.53 1.11,-0.26 1.8,0.21 2.09,1.4 0.27,1.17 0.11,3.39 -0.53,6.6 -0.67,3.23 -0.75,7.24 -0.29,12.01 0.44,4.79 0.58,7.43 0.43,7.93 z m 9.59,-64.46 c -0.11,0.37 -0.57,0.62 -1.38,0.75 -0.81,0.12 -1.32,0.18 -1.53,0.18 -1.63,0.26 -3.16,-0.8 -4.59,-3.16 -1.45,-2.36 -1.72,-4.47 -0.79,-6.33 0.35,-0.75 0.85,-1.4 1.47,-1.95 0.64,-0.57 1.31,-0.9 1.96,-1.04 1.51,-0.24 3.02,1.69 4.43,5.79 0.78,2.35 0.93,4.27 0.43,5.76 z"
   id="path54" />
			<path
   class="st2"
   d="m 1862.1,792.22 c -0.84,2.61 -4.39,3.91 -10.67,3.91 -3.39,0 -5.97,-1.61 -7.68,-4.84 -0.81,-1.63 -1.62,-3.22 -2.42,-4.85 -0.53,-0.88 -1.7,-3.28 -3.49,-7.27 -1.02,-2.22 -2.05,-3.35 -3.06,-3.35 -1.56,0 -4.31,1.25 -8.32,3.72 -1.79,1.13 -4.03,2.62 -6.69,4.48 -3.63,2.61 -7.21,5.23 -10.71,7.84 -5.02,3.34 -9.21,5.02 -12.62,5.02 -5,0 -7.95,-4.47 -8.73,-13.42 -0.7,-7.94 0.19,-15.71 2.65,-23.27 0.29,-0.88 0.98,-1.83 2.03,-2.9 1.08,-1.04 2.07,-1.63 3.05,-1.78 0.87,-0.1 1.48,0.24 1.91,1.04 0.38,0.81 0.19,2.98 -0.67,6.53 -0.84,3.53 -1.17,8.15 -0.97,13.88 0.18,7.32 1.64,10.99 4.43,10.99 1.44,0 3.35,-0.69 5.76,-2.05 0.14,-0.14 3.94,-2.8 11.41,-8.01 6.51,-4.61 10.49,-7.34 11.91,-8.2 4.28,-2.72 7.34,-4.11 9.21,-4.11 1.94,0 3.94,2.56 5.99,7.65 1.25,3.35 2.49,5.89 3.66,7.63 1.32,2.61 2.29,4.48 2.98,5.59 1.25,2.11 2.46,3.18 3.58,3.18 h 2.78 c 1.73,0 3.05,0.14 3.93,0.45 0.88,0.31 1.12,1.03 0.75,2.14 z"
   id="path56" />
		</g>
		<path
   class="st3"
   d="m 755.12,789.86 c -1.16,3.58 -2.26,5.9 -3.37,6.97 -1.13,1.09 -2.59,1.57 -4.46,1.49 -3.34,-0.15 -4.99,-5.43 -4.49,-15.83 1.88,-40.17 9.87,-69.58 12.55,-78.04 0.78,-2.47 1.78,-5.48 2.97,-9.05 1.23,-3.55 2.78,-5.63 4.68,-6.22 1.65,-0.39 2.65,0.49 2.99,2.68 0.3,2.17 -0.17,6.17 -1.37,11.98 -1.25,5.83 -7.46,28.96 -9.45,71.59 -0.43,8.77 0.22,13.53 -0.05,14.43 z"
   id="path60" />
	</g>
</g>
</svg>
