<?xml version="1.0" standalone="no"?>
<!DOCTYPE svg PUBLIC "-//W3C//DTD SVG 20010904//EN"
 "http://www.w3.org/TR/2001/REC-SVG-20010904/DTD/svg10.dtd">
<svg version="1.0" xmlns="http://www.w3.org/2000/svg"
 width="750.000000pt" height="750.000000pt" viewBox="0 0 750.000000 750.000000"
 preserveAspectRatio="xMidYMid meet">
<metadata>
Created by potrace 1.11, written by Peter Selinger 2001-2013
</metadata>
<g transform="translate(0.000000,750.000000) scale(0.100000,-0.100000)"
fill="#000000" stroke="none">
<path d="M388 7482 c-7 -26 -2 -2066 5 -2167 3 -44 8 -125 12 -180 20 -317 23
-357 30 -424 7 -63 12 -100 20 -181 8 -90 18 -163 30 -240 3 -19 10 -66 16
-105 6 -38 13 -81 15 -95 2 -14 7 -41 9 -60 3 -19 10 -55 15 -80 5 -25 12 -56
15 -70 2 -14 10 -47 15 -75 6 -27 13 -61 16 -75 3 -14 8 -34 11 -45 4 -11 7
-22 8 -25 11 -54 20 -89 41 -161 13 -47 26 -94 29 -105 4 -22 91 -280 104
-309 5 -11 19 -47 31 -80 13 -33 31 -78 41 -101 11 -22 19 -44 19 -48 0 -9 8
-28 97 -216 35 -74 67 -142 73 -150 5 -8 19 -35 31 -60 39 -77 142 -255 151
-258 4 -2 8 -8 8 -14 0 -9 132 -216 160 -251 5 -7 52 -70 105 -140 104 -140
173 -223 304 -366 79 -86 277 -285 327 -328 12 -10 52 -45 89 -78 86 -76 92
-81 200 -167 50 -39 93 -76 97 -82 4 -6 8 -7 8 -3 0 5 7 1 16 -7 8 -9 37 -30
62 -48 26 -17 49 -35 52 -39 17 -24 508 -340 627 -404 21 -11 70 -39 108 -62
39 -22 124 -69 190 -103 66 -34 126 -67 133 -73 10 -8 28 -5 65 8 29 10 55 22
58 27 3 5 16 10 29 13 12 2 30 10 39 17 9 7 52 31 96 53 44 22 82 42 85 45 3
3 29 16 57 30 29 14 53 28 53 33 0 4 5 7 11 7 7 0 49 23 95 50 46 28 86 50 89
50 3 0 11 5 18 10 17 15 137 90 143 90 3 0 10 5 17 11 7 5 26 19 42 29 59 38
70 46 189 129 67 47 159 114 206 150 109 84 101 78 130 102 14 12 45 37 69 57
212 175 460 422 642 637 46 56 95 116 109 134 14 18 40 52 58 74 38 50 37 49
82 112 19 28 38 51 42 53 4 2 8 9 8 16 0 7 9 21 20 31 11 10 20 22 20 27 0 4
15 30 33 56 51 73 107 169 107 181 0 6 3 11 8 11 4 0 34 53 67 118 33 64 63
119 68 120 4 2 7 7 7 12 0 5 20 51 44 102 24 51 51 111 61 133 9 22 23 53 31
69 8 16 14 32 14 36 0 4 8 25 17 46 9 22 18 44 19 49 1 6 8 24 15 40 6 17 13
35 15 40 1 6 23 69 49 140 88 244 134 377 133 384 -1 3 2 13 5 21 8 20 64 256
71 300 3 19 8 46 11 60 2 14 9 48 15 75 5 28 12 68 15 90 3 22 10 63 15 90 5
28 12 77 15 110 3 33 8 69 11 80 2 11 7 45 10 75 2 30 6 66 8 80 4 30 16 146
21 215 8 98 15 158 21 166 3 5 0 9 -6 9 -6 0 -8 5 -4 11 7 12 12 62 19 194 2
44 4 80 5 80 2 0 10 178 14 306 2 70 6 131 9 136 7 11 7 1800 0 1836 l-5 27
-3363 0 c-3261 0 -3363 -1 -3367 -18z"/>
</g>
</svg>
